<svg xmlns="http://www.w3.org/2000/svg" viewBox="0 0 64 80" x="0px" y="0px"><g data-name="geometric"><path d="M52.61377,8.98242H20.90625a.99974.99974,0,0,0-1,1V20.26367h-8.52a.99974.99974,0,0,0-1,1V54.01758a.99974.99974,0,0,0,1,1H44.14062a.99974.99974,0,0,0,1-1V42.68945h7.47315a.99973.99973,0,0,0,1-1V9.98242A.99974.99974,0,0,0,52.61377,8.98242ZM43.14062,53.01758H12.38623V22.26367h7.52V41.68945a.99973.99973,0,0,0,1,1H43.14062Zm0-12.32813H21.90625V22.26367H43.14062Zm8.47315,0H45.14062V21.26367a.99974.99974,0,0,0-1-1H21.90625V10.98242H51.61377Z"/><path d="M26,38H39a.99974.99974,0,0,0,1-1V26a.99974.99974,0,0,0-1-1H26a.99974.99974,0,0,0-1,1V37A.99974.99974,0,0,0,26,38Zm1-11H38v9H27Z"/><path d="M32.5,28.38281a3.11738,3.11738,0,0,0,.00009,6.23438A3.11738,3.11738,0,0,0,32.5,28.38281Zm0,4.23438a1.1173,1.1173,0,0,1,.00005-2.23438A1.1173,1.1173,0,0,1,32.5,32.61719Z"/></g><text x="0" y="79" fill="#000000" font-size="5px" font-weight="bold" font-family="'Helvetica Neue', Helvetica, Arial-Unicode, Arial, Sans-serif">Created by Zky Icon</text><text x="0" y="84" fill="#000000" font-size="5px" font-weight="bold" font-family="'Helvetica Neue', Helvetica, Arial-Unicode, Arial, Sans-serif">from the Noun Project</text></svg>